<svg aria-hidden="true" style="position: absolute; width: 0; height: 0; overflow: hidden;" version="1.1" xmlns="http://www.w3.org/2000/svg" xmlns:xlink="http://www.w3.org/1999/xlink">
  <defs>

<symbol id="logo" viewBox="0 0 32 32">
<path fill="#21d000" style="fill: var(--color2, #21d000)" d="M24 1.28h-3.2v3.2h3.2v-3.2z"></path>
<path fill="#21d000" style="fill: var(--color2, #21d000)" d="M24 4.48h-3.2v3.2h3.2v-3.2z"></path>
<path fill="#21d000" style="fill: var(--color2, #21d000)" d="M20.8 4.48h-3.2v3.2h3.2v-3.2z"></path>
<path fill="#a5ff00" style="fill: var(--color3, #a5ff00)" d="M17.6 4.48h-3.2v3.2h3.2v-3.2z"></path>
<path fill="#00ae3a" style="fill: var(--color4, #00ae3a)" d="M24 7.68h-3.2v3.2h3.2v-3.2z"></path>
<path fill="#21d000" style="fill: var(--color2, #21d000)" d="M20.8 7.68h-3.2v3.2h3.2v-3.2z"></path>
<path fill="#21d000" style="fill: var(--color2, #21d000)" d="M17.6 7.68h-3.2v3.2h3.2v-3.2z"></path>
<path fill="#a5ff00" style="fill: var(--color3, #a5ff00)" d="M14.4 7.68h-3.2v3.2h3.2v-3.2z"></path>
<path fill="#00ae3a" style="fill: var(--color4, #00ae3a)" d="M24 10.88h-3.2v3.2h3.2v-3.2z"></path>
<path fill="#00ae3a" style="fill: var(--color4, #00ae3a)" d="M20.8 10.88h-3.2v3.2h3.2v-3.2z"></path>
<path fill="#21d000" style="fill: var(--color2, #21d000)" d="M17.6 10.88h-3.2v3.2h3.2v-3.2z"></path>
<path fill="#21d000" style="fill: var(--color2, #21d000)" d="M14.4 10.88h-3.2v3.2h3.2v-3.2z"></path>
<path fill="#a5ff00" style="fill: var(--color3, #a5ff00)" d="M11.2 10.88h-3.2v3.2h3.2v-3.2z"></path>
<path fill="#014421" style="fill: var(--color1, #014421)" d="M24 14.080h-3.2v3.2h3.2v-3.2z"></path>
<path fill="#014421" style="fill: var(--color1, #014421)" d="M20.8 14.080h-3.2v3.2h3.2v-3.2z"></path>
<path fill="#00ae3a" style="fill: var(--color4, #00ae3a)" d="M17.6 14.080h-3.2v3.2h3.2v-3.2z"></path>
<path fill="#21d000" style="fill: var(--color2, #21d000)" d="M14.4 14.080h-3.2v3.2h3.2v-3.2z"></path>
<path fill="#00ae3a" style="fill: var(--color4, #00ae3a)" d="M11.2 14.080h-3.2v3.2h3.2v-3.2z"></path>
<path fill="#014421" style="fill: var(--color1, #014421)" d="M24 17.28h-3.2v3.2h3.2v-3.2z"></path>
<path fill="#014421" style="fill: var(--color1, #014421)" d="M20.8 17.28h-3.2v3.2h3.2v-3.2z"></path>
<path fill="#014421" style="fill: var(--color1, #014421)" d="M17.6 17.28h-3.2v3.2h3.2v-3.2z"></path>
<path fill="#014421" style="fill: var(--color1, #014421)" d="M14.4 17.28h-3.2v3.2h3.2v-3.2z"></path>
<path fill="#00ae3a" style="fill: var(--color4, #00ae3a)" d="M11.2 17.28h-3.2v3.2h3.2v-3.2z"></path>
<path fill="#014421" style="fill: var(--color1, #014421)" d="M11.528 23.36h1.627c-0.723-1.365 0.301-2.773 0.904-3.307l0.181-0.107-1.085-0.107c-1.446 1.024-1.687 2.773-1.627 3.52z"></path>
<path fill="#014421" style="fill: var(--color1, #014421)" d="M29.187 27.376v-0.576l1.43-0.437v-0.086l-1.43-0.437v-0.576l2.016 0.682v0.749l-2.016 0.682z"></path>
<path fill="#014421" style="fill: var(--color1, #014421)" d="M26.769 28.96l1.411-4.32h0.605l-1.411 4.32h-0.605z"></path>
<path fill="#014421" style="fill: var(--color1, #014421)" d="M25.562 28.067c-0.237 0-0.446-0.050-0.629-0.149-0.179-0.102-0.32-0.245-0.422-0.427-0.099-0.186-0.149-0.403-0.149-0.653v-0.058c0-0.25 0.050-0.466 0.149-0.648 0.099-0.186 0.238-0.328 0.418-0.427 0.179-0.102 0.387-0.154 0.624-0.154 0.234 0 0.437 0.053 0.61 0.158 0.173 0.102 0.307 0.246 0.403 0.432 0.096 0.182 0.144 0.395 0.144 0.638v0.206h-1.733c0.006 0.163 0.067 0.296 0.182 0.398s0.256 0.154 0.422 0.154c0.17 0 0.294-0.037 0.374-0.11s0.141-0.155 0.182-0.245l0.494 0.259c-0.045 0.083-0.11 0.174-0.197 0.274-0.083 0.096-0.195 0.179-0.336 0.25-0.141 0.067-0.32 0.101-0.538 0.101zM24.981 26.536h1.114c-0.013-0.138-0.069-0.248-0.168-0.331-0.096-0.083-0.222-0.125-0.379-0.125-0.163 0-0.293 0.042-0.389 0.125s-0.155 0.194-0.178 0.331z"></path>
<path fill="#014421" style="fill: var(--color1, #014421)" d="M21.519 28v-2.381h0.595v0.312h0.086c0.038-0.083 0.11-0.162 0.216-0.235 0.106-0.077 0.266-0.115 0.48-0.115 0.186 0 0.347 0.043 0.485 0.13 0.141 0.083 0.25 0.2 0.326 0.35 0.077 0.147 0.115 0.32 0.115 0.518v1.421h-0.605v-1.373c0-0.179-0.045-0.314-0.134-0.403-0.086-0.090-0.211-0.134-0.374-0.134-0.186 0-0.33 0.062-0.432 0.187-0.102 0.122-0.154 0.293-0.154 0.514v1.21h-0.605z"></path>
<path fill="#014421" style="fill: var(--color1, #014421)" d="M20.244 28v-2.381h0.605v2.381h-0.605zM20.547 25.341c-0.109 0-0.202-0.035-0.278-0.106-0.074-0.070-0.11-0.163-0.11-0.278s0.037-0.208 0.11-0.278c0.077-0.070 0.17-0.106 0.278-0.106 0.112 0 0.205 0.035 0.278 0.106s0.11 0.163 0.11 0.278c0 0.115-0.037 0.208-0.11 0.278s-0.166 0.106-0.278 0.106z"></path>
<path fill="#014421" style="fill: var(--color1, #014421)" d="M18.969 28v-3.36h0.605v3.36h-0.605z"></path>
<path fill="#014421" style="fill: var(--color1, #014421)" d="M16.012 28v-2.381h0.595v0.312h0.086c0.038-0.083 0.11-0.162 0.216-0.235 0.106-0.077 0.266-0.115 0.48-0.115 0.186 0 0.347 0.043 0.485 0.13 0.141 0.083 0.25 0.2 0.326 0.35 0.077 0.147 0.115 0.32 0.115 0.518v1.421h-0.605v-1.373c0-0.179-0.045-0.314-0.134-0.403-0.086-0.090-0.211-0.134-0.374-0.134-0.186 0-0.33 0.062-0.432 0.187-0.102 0.122-0.154 0.293-0.154 0.514v1.21h-0.605z"></path>
<path fill="#014421" style="fill: var(--color1, #014421)" d="M14.205 28.067c-0.237 0-0.45-0.048-0.638-0.144s-0.338-0.235-0.446-0.418c-0.109-0.182-0.163-0.402-0.163-0.658v-0.077c0-0.256 0.054-0.475 0.163-0.658s0.258-0.322 0.446-0.418c0.189-0.096 0.402-0.144 0.638-0.144s0.45 0.048 0.638 0.144c0.189 0.096 0.338 0.235 0.446 0.418s0.163 0.402 0.163 0.658v0.077c0 0.256-0.054 0.475-0.163 0.658s-0.258 0.322-0.446 0.418c-0.189 0.096-0.402 0.144-0.638 0.144zM14.205 27.53c0.186 0 0.339-0.059 0.461-0.178 0.122-0.122 0.182-0.294 0.182-0.518v-0.048c0-0.224-0.061-0.395-0.182-0.514-0.118-0.122-0.272-0.182-0.461-0.182-0.186 0-0.339 0.061-0.461 0.182-0.122 0.118-0.182 0.29-0.182 0.514v0.048c0 0.224 0.061 0.397 0.182 0.518 0.122 0.118 0.275 0.178 0.461 0.178z"></path>
<path fill="#014421" style="fill: var(--color1, #014421)" d="M12.050 28.067c-0.128 0-0.237-0.042-0.326-0.125-0.086-0.086-0.13-0.197-0.13-0.331s0.043-0.243 0.13-0.326c0.090-0.086 0.198-0.13 0.326-0.13 0.131 0 0.24 0.043 0.326 0.13 0.086 0.083 0.13 0.192 0.13 0.326s-0.043 0.245-0.13 0.331c-0.086 0.083-0.195 0.125-0.326 0.125z"></path>
<path fill="#014421" style="fill: var(--color1, #014421)" d="M9.733 28l-0.758-2.381h0.643l0.552 1.939h0.086l0.552-1.939h0.643l-0.758 2.381h-0.96z"></path>
<path fill="#014421" style="fill: var(--color1, #014421)" d="M7.618 28.067c-0.237 0-0.446-0.050-0.629-0.149-0.179-0.102-0.32-0.245-0.422-0.427-0.099-0.186-0.149-0.403-0.149-0.653v-0.058c0-0.25 0.050-0.466 0.149-0.648 0.099-0.186 0.238-0.328 0.418-0.427 0.179-0.102 0.387-0.154 0.624-0.154 0.234 0 0.437 0.053 0.61 0.158 0.173 0.102 0.307 0.246 0.403 0.432 0.096 0.182 0.144 0.395 0.144 0.638v0.206h-1.733c0.006 0.163 0.067 0.296 0.182 0.398s0.256 0.154 0.422 0.154c0.17 0 0.294-0.037 0.374-0.11s0.141-0.155 0.182-0.245l0.494 0.259c-0.045 0.083-0.11 0.174-0.197 0.274-0.083 0.096-0.195 0.179-0.336 0.25-0.141 0.067-0.32 0.101-0.538 0.101zM7.037 26.536h1.114c-0.013-0.138-0.069-0.248-0.168-0.331-0.096-0.083-0.222-0.125-0.379-0.125-0.163 0-0.293 0.042-0.389 0.125s-0.155 0.194-0.178 0.331z"></path>
<path fill="#014421" style="fill: var(--color1, #014421)" d="M4.433 28.067c-0.189 0-0.366-0.046-0.533-0.139-0.163-0.096-0.294-0.235-0.394-0.418s-0.149-0.403-0.149-0.662v-0.077c0-0.259 0.050-0.48 0.149-0.662s0.23-0.32 0.394-0.413c0.163-0.096 0.341-0.144 0.533-0.144 0.144 0 0.264 0.018 0.36 0.053 0.099 0.032 0.179 0.074 0.24 0.125s0.107 0.106 0.139 0.163h0.086v-1.253h0.605v3.36h-0.595v-0.288h-0.086c-0.054 0.090-0.139 0.171-0.254 0.245-0.112 0.074-0.277 0.11-0.494 0.11zM4.615 27.539c0.186 0 0.341-0.059 0.466-0.178 0.125-0.122 0.187-0.298 0.187-0.528v-0.048c0-0.23-0.062-0.405-0.187-0.523-0.122-0.122-0.277-0.182-0.466-0.182-0.186 0-0.341 0.061-0.466 0.182-0.125 0.118-0.187 0.293-0.187 0.523v0.048c0 0.23 0.062 0.406 0.187 0.528 0.125 0.118 0.28 0.178 0.466 0.178z"></path>
<path fill="#014421" style="fill: var(--color1, #014421)" d="M2.656 27.376l-2.016-0.682v-0.749l2.016-0.682v0.576l-1.43 0.437v0.086l1.43 0.437v0.576z"></path>
</symbol>


<symbol id="icon-language" viewBox="0 0 32 32">
<path fill="none" stroke="#014421" style="stroke: var(--color1, #014421)" stroke-linejoin="round" stroke-linecap="round" stroke-miterlimit="4" stroke-width="1.3333" d="M4.8 12h22.4M4.8 20h22.4M15.333 4c-2.246 3.599-3.437 7.757-3.437 12s1.191 8.401 3.437 12M16.667 4c2.246 3.599 3.437 7.757 3.437 12s-1.191 8.401-3.437 12M4 16c0 1.576 0.31 3.136 0.913 4.592s1.487 2.779 2.601 3.893c1.114 1.114 2.437 1.998 3.893 2.601s3.016 0.913 4.592 0.913c1.576 0 3.136-0.31 4.592-0.913s2.779-1.487 3.893-2.601c1.114-1.114 1.998-2.437 2.601-3.893s0.913-3.016 0.913-4.592c0-3.183-1.264-6.235-3.515-8.485s-5.303-3.515-8.485-3.515-6.235 1.264-8.485 3.515c-2.25 2.25-3.515 5.303-3.515 8.485z"></path>
</symbol>


  </defs>
</svg>


