<svg aria-hidden="true" style="position: absolute; width: 0; height: 0; overflow: hidden;" version="1.1" xmlns="http://www.w3.org/2000/svg" xmlns:xlink="http://www.w3.org/1999/xlink">
  <defs>

<symbol id="icon-language" viewBox="0 0 32 32">
<path fill="none" stroke="#014421" style="stroke: var(--color1, #014421)" stroke-linejoin="round" stroke-linecap="round" stroke-miterlimit="4" stroke-width="1.3333" d="M4.8 12h22.4M4.8 20h22.4M15.333 4c-2.246 3.599-3.437 7.757-3.437 12s1.191 8.401 3.437 12M16.667 4c2.246 3.599 3.437 7.757 3.437 12s-1.191 8.401-3.437 12M4 16c0 1.576 0.31 3.136 0.913 4.592s1.487 2.779 2.601 3.893c1.114 1.114 2.437 1.998 3.893 2.601s3.016 0.913 4.592 0.913c1.576 0 3.136-0.31 4.592-0.913s2.779-1.487 3.893-2.601c1.114-1.114 1.998-2.437 2.601-3.893s0.913-3.016 0.913-4.592c0-3.183-1.264-6.235-3.515-8.485s-5.303-3.515-8.485-3.515-6.235 1.264-8.485 3.515c-2.25 2.25-3.515 5.303-3.515 8.485z"></path>
</symbol>

<symbol id="phone" viewBox="0 0 32 32">

  <path
    fill="none"
    stroke="currentColor"
    stroke-linejoin="round"
    stroke-linecap="round"
    stroke-miterlimit="4"
    stroke-width="3.3684"
    d="M5.053 1.684h6.737l3.368 8.421-4.211 2.526c1.804 3.657 4.764 6.617 8.421 8.421l2.526-4.211 8.421 3.368v6.737c0 0.893-0.355 1.75-0.987 2.382s-1.488 0.987-2.382 0.987c-6.57-0.399-12.766-3.189-17.42-7.843s-7.444-10.85-7.843-17.42c0-0.893 0.355-1.75 0.987-2.382s1.488-0.987 2.382-0.987z"
  />
</symbol>

<symbol id="facebook" viewBox="0 0 32 32">
<path     fill="none"
    stroke="currentColor"
    stroke-linejoin="round"
    stroke-linecap="round"
stroke-miterlimit="4" stroke-width="2.6667" 
d="M9.333 13.333v5.333h4v9.333h5.333v-9.333h4l1.333-5.333h-5.333v-2.667c0-0.354 0.141-0.693 0.391-0.943s0.589-0.391 0.943-0.391h4v-5.333h-4c-1.768 0-3.464 0.702-4.714 1.953s-1.953 2.946-1.953 4.714v2.667h-4z"></path>
</symbol>

<symbol id="instagram" viewBox="0 0 32 32">
<path 
  fill="none"
    stroke="currentColor"
    stroke-linejoin="round"
    stroke-linecap="round"
stroke-miterlimit="4"
 stroke-width="3.5556"
  d="M24 8v0.018M1.778 8.889c0-1.886 0.749-3.695 2.083-5.028s3.142-2.083 5.028-2.083h14.222c1.886 0 3.695 0.749 5.028 2.083s2.083 3.142 2.083 5.028v14.222c0 1.886-0.749 3.695-2.083 5.028s-3.142 2.083-5.028 2.083h-14.222c-1.886 0-3.695-0.749-5.028-2.083s-2.083-3.142-2.083-5.028v-14.222zM10.667 16c0 1.415 0.562 2.771 1.562 3.771s2.357 1.562 3.771 1.562c1.415 0 2.771-0.562 3.771-1.562s1.562-2.357 1.562-3.771c0-1.415-0.562-2.771-1.562-3.771s-2.357-1.562-3.771-1.562c-1.415 0-2.771 0.562-3.771 1.562s-1.562 2.357-1.562 3.771z"></path>
</symbol>


<symbol id="tictok" viewBox="0 0 32 32">
<path 
  fill="none"
    stroke="currentColor"
    stroke-linejoin="round"
    stroke-linecap="round"
 stroke-miterlimit="4" 
stroke-width="2.6667"
 d="M28 10.556v5.379c-2.419-0.24-4.725-1.14-6.667-2.601v6c-0 1.628-0.459 3.223-1.324 4.603s-2.101 2.487-3.567 3.196c-1.466 0.709-3.101 0.991-4.72 0.814s-3.154-0.807-4.431-1.817-2.244-2.359-2.79-3.893c-0.546-1.534-0.648-3.191-0.296-4.78s1.145-3.048 2.288-4.208c1.143-1.16 2.589-1.974 4.173-2.35v5.768c-0.455 0.341-0.814 0.792-1.045 1.311s-0.325 1.089-0.274 1.655c0.051 0.566 0.246 1.109 0.566 1.579s0.755 0.849 1.263 1.103c0.508 0.254 1.073 0.374 1.641 0.349s1.119-0.196 1.603-0.495c0.483-0.299 0.882-0.716 1.159-1.212s0.422-1.055 0.422-1.623v-15.333h5.444c0.278 1.638 1.058 3.149 2.233 4.324s2.686 1.955 4.323 2.232z"></path>
</symbol>



<symbol id="arrow-right" viewBox="0 0 32 32">
<path fill="none" stroke="#014421" style="stroke: var(--color1, #014421)" stroke-linejoin="round" stroke-linecap="round" stroke-miterlimit="4" stroke-width="2.6667" d="M6.667 16h18.667"></path>
<path fill="none" stroke="#014421" style="stroke: var(--color1, #014421)" stroke-linejoin="round" stroke-linecap="round" stroke-miterlimit="4" stroke-width="2.6667" d="M16 6.667l9.333 9.333-9.333 9.333"></path>
</symbol>




<symbol id="diagram" viewBox="0 0 32 32">
<path fill="#014421" style="fill: var(--color1, #014421)" d="M29.398 29.593h-22.114c-2.693 0-4.878-2.185-4.878-4.878v-22.114c0-0.533 0.442-0.976 0.976-0.976s0.976 0.442 0.976 0.976v22.114c0 1.613 1.314 2.927 2.927 2.927h22.114c0.533 0 0.976 0.442 0.976 0.976s-0.442 0.976-0.976 0.976z"></path>
<path fill="#014421" style="fill: var(--color1, #014421)" d="M7.284 23.089c-0.221 0-0.455-0.078-0.637-0.234-0.403-0.351-0.455-0.963-0.104-1.379l5.971-6.972c0.65-0.755 1.587-1.21 2.576-1.249 0.989-0.026 1.964 0.338 2.667 1.041l1.236 1.236c0.325 0.325 0.741 0.481 1.21 0.481 0.455-0.013 0.872-0.221 1.171-0.572l5.971-6.972c0.351-0.403 0.963-0.455 1.379-0.104 0.403 0.351 0.455 0.963 0.104 1.379l-5.971 6.972c-0.65 0.755-1.587 1.21-2.576 1.249-1.002 0.026-1.964-0.338-2.667-1.041l-1.223-1.236c-0.325-0.325-0.754-0.494-1.21-0.481s-0.871 0.221-1.171 0.572l-5.971 6.972c-0.208 0.221-0.481 0.338-0.755 0.338z"></path>
</symbol>


<symbol id="puzzle" viewBox="0 0 31 32">
<path fill="none" stroke="#014421" style="stroke: var(--color1, #014421)" stroke-linejoin="round" stroke-linecap="round" stroke-miterlimit="4" stroke-width="1.9512" d="M5.203 18.211v5.724c0 0.431 0.349 0.78 0.78 0.78h7.024v1.301c0 1.437 1.165 2.602 2.602 2.602s2.602-1.165 2.602-2.602v-1.301h5.724c0.431 0 0.78-0.349 0.78-0.78v-5.724h1.301c1.437 0 2.602-1.165 2.602-2.602s-1.165-2.602-2.602-2.602h-1.301v-5.724c0-0.431-0.349-0.78-0.78-0.78h-5.724v-1.301c0-1.437-1.165-2.602-2.602-2.602s-2.602 1.165-2.602 2.602v1.301h-7.024c-0.431 0-0.78 0.349-0.78 0.78v5.724h1.301c1.437 0 2.602 1.165 2.602 2.602s-1.165 2.602-2.602 2.602h-1.301z"></path>
</symbol>


<symbol id="leaf" viewBox="0 0 31 32">
<path fill="none" stroke="#014421" style="stroke: var(--color1, #014421)" stroke-linejoin="round" stroke-linecap="round" stroke-miterlimit="4" stroke-width="1.9512" d="M10.406 23.415c15.551 0 16.803-13.23 16.902-19.517 0.011-0.718-0.59-1.298-1.308-1.285-22.098 0.406-22.098 11.119-22.098 20.801v5.203"></path>
<path fill="none" stroke="#014421" style="stroke: var(--color1, #014421)" stroke-linejoin="round" stroke-linecap="round" stroke-miterlimit="4" stroke-width="1.9512" d="M3.902 23.415c0 0 0-7.805 10.406-9.106"></path>
</symbol>


<symbol id="rocket" viewBox="0 0 30 32">
<path fill="none" stroke="#014421" style="stroke: var(--color1, #014421)" stroke-linejoin="round" stroke-linecap="round" stroke-miterlimit="4" stroke-width="1.8605" d="M12.403 21.085h4.961l2.557-8.181c0.729-2.333 0.266-4.875-1.239-6.801l-3.212-4.112c-0.298-0.381-0.875-0.381-1.173 0l-3.212 4.112c-1.505 1.926-1.968 4.468-1.239 6.801l2.557 8.181zM12.403 21.085l-3.721 2.481c0 0-2.481-4.961 1.86-8.062M12.403 24.806c0 2.481 2.481 3.721 2.481 3.721s2.481-1.24 2.481-3.721M19.76 15.504c4.341 3.101 1.86 8.062 1.86 8.062l-3.721-2.481M14.884 13.643c-1.37 0-2.481-1.111-2.481-2.481s1.111-2.481 2.481-2.481 2.481 1.111 2.481 2.481c0 1.37-1.111 2.481-2.481 2.481z"></path>
</symbol>



  </defs>
</svg>


